<?xml version="1.0" encoding="UTF-8"?>
<svg version="1.1" xmlns="http://www.w3.org/2000/svg" width="512" height="512">
<!-- Inner eye shape filled with white -->
<path d="M-170.43023682 184.44073486 C-173.9681928 190.59677828 -174.71598196 195.66708955 -173.07867432 202.58917236 C-171.83528452 206.55617791 -170.41669246 210.39755462 -168.86773682 214.25323486 C-168.58752686 214.96044678 -168.30731689 215.66765869 -168.01861572 216.39630127 C-161.40575362 232.82037929 -152.65966928 248.00054237 -140.86773682 261.25323486 C-140.1394165 262.10143799 -139.41109619 262.94964111 -138.66070557 263.82354736 C-123.69146115 280.96870647 -100.29622024 299.30602118 -76.86773682 302.25323486 C-67.45712803 302.80931629 -59.25220694 299.03647138 -50.86773682 295.25323486 C-49.83390869 294.7981958 -48.80008057 294.34315674 -47.73492432 293.87432861 C-12.48335673 277.37659498 10.28012747 243.33549428 23.65740967 207.95098877 C26.31847989 200.37679626 27.3394582 194.27178412 24.06195068 186.81964111 C20.49785467 180.61811405 15.88294033 177.45088521 9.13226318 175.25323486 C3.24449378 173.909046 -1.2099737 175.97169122 -6.47320557 178.57354736 C-13.01421447 183.16185704 -15.11528677 188.83509708 -17.61773682 196.12823486 C-26.65299008 221.01033165 -41.68676198 241.92764454 -64.86773682 255.25323486 C-65.8719165 255.83073486 -66.87609619 256.40823486 -67.91070557 257.00323486 C-71.27303605 258.42456347 -73.25231317 258.70282122 -76.86773682 258.25323486 C-100.87220075 248.50522921 -116.65855748 227.1591823 -126.86773682 204.25323486 C-127.63802859 202.41903186 -128.40069885 200.58161452 -129.15679932 198.74151611 C-129.54609619 197.80050049 -129.93539307 196.85948486 -130.33648682 195.88995361 C-131.09016423 194.04904561 -131.82798446 192.20154093 -132.54742432 190.34698486 C-135.42292103 183.27626719 -138.44065227 180.09370619 -145.24273682 176.44073486 C-155.05076374 173.22776053 -164.20910421 176.02654112 -170.43023682 184.44073486 Z" fill="white" transform="translate(329.86773681640625,25.74676513671875)"/>
<!-- Outer shape (black) -->
<path d="M0 0 C2.26993249 0.26958494 4.54129563 0.52279959 6.81341553 0.77325439 C37.50242466 4.17924679 67.80630684 9.46160301 97.88226318 16.44073486 C98.94231064 16.68420151 98.94231064 16.68420151 100.02377319 16.93258667 C123.76501396 22.42654008 123.76501396 22.42654008 131.13226318 31.25323486 C135.81131274 38.99078868 138.52284869 46.99838288 140.56976318 55.75323486 C140.85778809 56.95190186 141.14581299 58.15056885 141.44256592 59.38555908 C154.57853747 115.22679135 161.37180154 172.08482925 161.31976318 229.44073486 C161.31915894 230.67545532 161.31855469 231.91017578 161.31793213 233.18231201 C161.29217419 252.62076229 160.91662475 271.88788034 159.13226318 291.25323486 C159.07145569 291.92954956 159.01064819 292.60586426 158.94799805 293.30267334 C155.94492668 326.57443036 150.76689394 359.59753673 143.44476318 392.19073486 C143.25862457 393.02326782 143.07248596 393.85580078 142.88070679 394.71356201 C135.36245293 428.07240982 135.36245293 428.07240982 123.78631592 435.82281494 C120.60101796 437.53955312 117.34110147 438.63313065 113.89398193 439.67901611 C113.19275711 439.8942543 112.49153229 440.10949249 111.76905823 440.33125305 C104.03576714 442.65531995 96.2065096 444.47358866 88.31976318 446.19073486 C87.55313354 446.35932007 86.78650391 446.52790527 85.99664307 446.70159912 C58.97230077 452.62396384 31.68903277 457.11582837 4.175354 460.03320312 C2.16085997 460.25015512 0.14806083 460.47924813 -1.86480713 460.71075439 C-50.16995331 466.16560981 -101.61486638 465.94278678 -149.86773682 460.25323486 C-151.43558295 460.07430511 -153.00345483 459.89560077 -154.5713501 459.71710205 C-262.54153408 447.26285231 -262.54153408 447.26285231 -278.49664307 429.43292236 C-281.8615014 424.99704395 -283.69443859 420.23811202 -285.30133057 414.95245361 C-285.51649323 414.25183304 -285.73165588 413.55121246 -285.95333862 412.82936096 C-288.22790463 405.27678396 -290.05266637 397.64238719 -291.74273682 389.94073486 C-291.90971069 389.1856665 -292.07668457 388.43059814 -292.24871826 387.65264893 C-299.07960036 356.55259328 -303.79295211 324.97241404 -306.68347168 293.26757812 C-306.85843103 291.35496357 -307.04037837 289.44299203 -307.22271729 287.53106689 C-310.79180044 248.5787403 -310.65268955 208.17503444 -306.86773682 169.25323486 C-306.79468323 168.47639343 -306.72162964 167.699552 -306.6463623 166.89916992 C-303.29543398 131.27740159 -297.7363007 96.05807268 -289.68023682 61.19073486 C-289.5239682 60.50453064 -289.36769958 59.81832642 -289.20669556 59.11132812 C-286.08772264 45.5537523 -282.63019433 31.60130016 -270.20758057 23.80401611 C-263.20063211 20.04902498 -255.37271808 18.61347777 -247.68023682 16.87823486 C-246.43680008 16.59176086 -246.43680008 16.59176086 -245.16824341 16.29949951 C-214.43838975 9.22153591 -183.5070019 3.96529472 -152.1640625 0.51037598 C-150.00220993 0.26829308 -147.84242238 0.01288167 -145.68267822 -0.24725342 C-98.37576309 -5.85581624 -47.28769386 -5.69566937 0 0 Z M-170.43023682 184.44073486 C-173.9681928 190.59677828 -174.71598196 195.66708955 -173.07867432 202.58917236 C-171.83528452 206.55617791 -170.41669246 210.39755462 -168.86773682 214.25323486 C-168.58752686 214.96044678 -168.30731689 215.66765869 -168.01861572 216.39630127 C-161.40575362 232.82037929 -152.65966928 248.00054237 -140.86773682 261.25323486 C-140.1394165 262.10143799 -139.41109619 262.94964111 -138.66070557 263.82354736 C-123.69146115 280.96870647 -100.29622024 299.30602118 -76.86773682 302.25323486 C-67.45712803 302.80931629 -59.25220694 299.03647138 -50.86773682 295.25323486 C-49.83390869 294.7981958 -48.80008057 294.34315674 -47.73492432 293.87432861 C-12.48335673 277.37659498 10.28012747 243.33549428 23.65740967 207.95098877 C26.31847989 200.37679626 27.3394582 194.27178412 24.06195068 186.81964111 C20.49785467 180.61811405 15.88294033 177.45088521 9.13226318 175.25323486 C3.24449378 173.909046 -1.2099737 175.97169122 -6.47320557 178.57354736 C-13.01421447 183.16185704 -15.11528677 188.83509708 -17.61773682 196.12823486 C-26.65299008 221.01033165 -41.68676198 241.92764454 -64.86773682 255.25323486 C-65.8719165 255.83073486 -66.87609619 256.40823486 -67.91070557 257.00323486 C-71.27303605 258.42456347 -73.25231317 258.70282122 -76.86773682 258.25323486 C-100.87220075 248.50522921 -116.65855748 227.1591823 -126.86773682 204.25323486 C-127.63802859 202.41903186 -128.40069885 200.58161452 -129.15679932 198.74151611 C-129.54609619 197.80050049 -129.93539307 196.85948486 -130.33648682 195.88995361 C-131.09016423 194.04904561 -131.82798446 192.20154093 -132.54742432 190.34698486 C-135.42292103 183.27626719 -138.44065227 180.09370619 -145.24273682 176.44073486 C-155.05076374 173.22776053 -164.20910421 176.02654112 -170.43023682 184.44073486 Z" fill="#000000" transform="translate(329.86773681640625,25.74676513671875)"/>
</svg>
